<svg id="Group_34354" data-name="Group 34354" xmlns="http://www.w3.org/2000/svg" width="170.833" height="62.749" viewBox="0 0 170.833 62.749">
  <g id="Group_28926" data-name="Group 28926" transform="translate(0 0)">
    <g id="Group_28782" data-name="Group 28782" transform="translate(0 0)">
      <path id="Path_35226" data-name="Path 35226" d="M-5053.644,158.626a33.985,33.985,0,0,1-7.713-.892,33.489,33.489,0,0,1-20.972-15.024,33.745,33.745,0,0,1,10.817-46.426,2.7,2.7,0,0,1,3.713.866,2.694,2.694,0,0,1-.866,3.714,28.347,28.347,0,0,0-9.086,39,28.124,28.124,0,0,0,17.618,12.62,28.128,28.128,0,0,0,21.381-3.534,2.7,2.7,0,0,1,3.712.866,2.7,2.7,0,0,1-.864,3.714A33.492,33.492,0,0,1-5053.644,158.626Z" transform="translate(5087.407 -95.877)"/>
    </g>
    <g id="Group_28783" data-name="Group 28783" transform="translate(54.483 48.419)">
      <ellipse id="Ellipse_248" data-name="Ellipse 248" cx="2.824" cy="2.824" rx="2.824" ry="2.824"/>
    </g>
  </g>
  <g id="Group_29002" data-name="Group 29002" transform="translate(24.058 15.823)" style="isolation: isolate">
    <path id="Path_24206" data-name="Path 24206" d="M-3755.749,2562.943a11.173,11.173,0,0,1,11.462-11.462,10.975,10.975,0,0,1,9.477,5.2l-3.747,2.172a6.361,6.361,0,0,0-5.73-3.148,6.835,6.835,0,0,0-7.149,7.243,6.826,6.826,0,0,0,7.149,7.21,6.362,6.362,0,0,0,5.73-3.117l3.747,2.173a10.9,10.9,0,0,1-9.477,5.2A11.192,11.192,0,0,1-3755.749,2562.943Z" transform="translate(3755.749 -2550.978)"/>
    <path id="Path_24207" data-name="Path 24207" d="M-3587.424,2547.9h4.062v22.986h-4.062Z" transform="translate(3611.104 -2547.9)"/>
    <path id="Path_24208" data-name="Path 24208" d="M-3529.267,2609.189a4.364,4.364,0,0,0,3.527-1.574l3.275,1.889a7.966,7.966,0,0,1-6.865,3.369c-5.29,0-8.628-3.62-8.628-8.312a8.039,8.039,0,0,1,8.313-8.313c4.66,0,7.966,3.684,7.966,8.313a9.355,9.355,0,0,1-.157,1.668h-11.872C-3533.139,2608.308-3531.407,2609.189-3529.267,2609.189Zm3.527-6.109a3.82,3.82,0,0,0-3.9-3.18,3.926,3.926,0,0,0-4.125,3.18Z" transform="translate(3568.595 -2589.447)"/>
    <path id="Path_24209" data-name="Path 24209" d="M-3402.5,2599.381l-5.982,15.745h-4.628l-5.983-15.745h4.471l3.81,11.021,3.842-11.021Z" transform="translate(3466.456 -2592.139)"/>
    <path id="Path_24210" data-name="Path 24210" d="M-3288.863,2609.189a4.364,4.364,0,0,0,3.527-1.574l3.275,1.889a7.964,7.964,0,0,1-6.865,3.369c-5.289,0-8.628-3.62-8.628-8.312a8.04,8.04,0,0,1,8.313-8.313c4.66,0,7.966,3.684,7.966,8.313a9.286,9.286,0,0,1-.158,1.668h-11.87C-3292.735,2608.308-3291,2609.189-3288.863,2609.189Zm3.527-6.109a3.82,3.82,0,0,0-3.9-3.18,3.926,3.926,0,0,0-4.125,3.18Z" transform="translate(3362.011 -2589.447)"/>
    <path id="Path_24211" data-name="Path 24211" d="M-3066.846,2558.772h-5.951v17.885h-4.345v-17.885h-5.919v-4.157h16.215Z" transform="translate(3177.692 -2553.671)"/>
    <path id="Path_24212" data-name="Path 24212" d="M-2961.235,2596.689v15.743h-4.063v-1.857a6.266,6.266,0,0,1-5.132,2.3c-4.188,0-7.651-3.62-7.651-8.312s3.463-8.313,7.651-8.313a6.267,6.267,0,0,1,5.132,2.3v-1.857Zm-4.063,7.872a4.233,4.233,0,0,0-4.376-4.44,4.226,4.226,0,0,0-4.346,4.44,4.226,4.226,0,0,0,4.346,4.439A4.233,4.233,0,0,0-2965.3,2604.561Z" transform="translate(3087.48 -2589.447)"/>
    <path id="Path_24213" data-name="Path 24213" d="M-2815.294,2604.561c0,4.692-3.463,8.312-7.683,8.312a6.116,6.116,0,0,1-5.1-2.3v8.155h-4.061v-22.041h4.061v1.857a6.117,6.117,0,0,1,5.1-2.3C-2818.758,2596.248-2815.294,2599.869-2815.294,2604.561Zm-4.062,0a4.233,4.233,0,0,0-4.376-4.44,4.226,4.226,0,0,0-4.345,4.44,4.226,4.226,0,0,0,4.345,4.439A4.232,4.232,0,0,0-2819.357,2604.561Z" transform="translate(2962.069 -2589.447)"/>
    <path id="Path_24214" data-name="Path 24214" d="M-3157.19,2612.434h-4.051v-16.168h5.615a6.566,6.566,0,0,1,6.983,6.009l-4.011.565c-.342-2.416-2.024-2.58-2.728-2.529l-1.809,0Z" transform="translate(3244.873 -2589.448)"/>
  </g>
</svg>
